<svg width="21" height="21" viewBox="0 0 21 21" fill="none" xmlns="http://www.w3.org/2000/svg">
  <path d="M8.625 0.5C8.9375 0.5 9.25 0.8125 9.25 1.125V3H15.5V1.125C15.5 0.8125 15.7734 0.5 16.125 0.5C16.4375 0.5 16.75 0.8125 16.75 1.125V3H18C19.3672 3 20.5 4.13281 20.5 5.5V8V14.25C20.5 15.6562 19.3672 16.75 18 16.75H6.75C5.34375 16.75 4.25 15.6562 4.25 14.25V8V5.5C4.25 4.13281 5.34375 3 6.75 3H8V1.125C8 0.8125 8.27344 0.5 8.625 0.5ZM6.75 4.25C6.04688 4.25 5.5 4.83594 5.5 5.5V6.75H19.25V5.5C19.25 4.83594 18.6641 4.25 18 4.25H6.75ZM19.25 8H5.5V14.25C5.5 14.9531 6.04688 15.5 6.75 15.5H18C18.6641 15.5 19.25 14.9531 19.25 14.25V8ZM1.75 8.625V15.5C1.75 17.5703 3.42969 19.25 5.5 19.25H14.875C15.1875 19.25 15.5 19.5625 15.5 19.875C15.5 20.2266 15.1875 20.5 14.875 20.5H5.5C2.72656 20.5 0.5 18.2734 0.5 15.5V8.625C0.5 8.3125 0.773438 8 1.125 8C1.4375 8 1.75 8.3125 1.75 8.625Z" fill="#025B4B"/>
</svg>