<svg width="20" height="15" viewBox="0 0 20 15" fill="none" xmlns="http://www.w3.org/2000/svg">
  <path d="M2 0C2.66406 0 3.25 0.585938 3.25 1.25C3.25 1.95312 2.66406 2.5 2 2.5C1.29688 2.5 0.75 1.95312 0.75 1.25C0.75 0.585938 1.29688 0 2 0ZM6.375 0.625H18.875C19.1875 0.625 19.5 0.9375 19.5 1.25C19.5 1.60156 19.1875 1.875 18.875 1.875H6.375C6.02344 1.875 5.75 1.60156 5.75 1.25C5.75 0.9375 6.02344 0.625 6.375 0.625ZM6.375 6.875H18.875C19.1875 6.875 19.5 7.1875 19.5 7.5C19.5 7.85156 19.1875 8.125 18.875 8.125H6.375C6.02344 8.125 5.75 7.85156 5.75 7.5C5.75 7.1875 6.02344 6.875 6.375 6.875ZM6.375 13.125H18.875C19.1875 13.125 19.5 13.4375 19.5 13.75C19.5 14.1016 19.1875 14.375 18.875 14.375H6.375C6.02344 14.375 5.75 14.1016 5.75 13.75C5.75 13.4375 6.02344 13.125 6.375 13.125ZM3.25 7.5C3.25 8.20312 2.66406 8.75 2 8.75C1.29688 8.75 0.75 8.20312 0.75 7.5C0.75 6.83594 1.29688 6.25 2 6.25C2.66406 6.25 3.25 6.83594 3.25 7.5ZM2 12.5C2.66406 12.5 3.25 13.0859 3.25 13.75C3.25 14.4531 2.66406 15 2 15C1.29688 15 0.75 14.4531 0.75 13.75C0.75 13.0859 1.29688 12.5 2 12.5Z" fill="#E68A00"/>
</svg>
