<svg width="14" height="16" viewBox="0 0 14 16" fill="none" xmlns="http://www.w3.org/2000/svg">
<path d="M2 1C2 0.46875 2.4375 0 3 0H11C11.5312 0 12 0.46875 12 1C12 1.5625 11.5312 2 11 2H10.0625L10.4062 6.65625C11.5625 7.28125 12.4688 8.3125 12.9062 9.59375L12.9375 9.6875C13.0312 10 13 10.3438 12.8125 10.5938C12.625 10.8438 12.3125 11 12 11H2C1.65625 11 1.375 10.875 1.1875 10.5938C0.96875 10.3438 0.9375 10 1.03125 9.6875L1.0625 9.59375C1.5 8.3125 2.40625 7.28125 3.5625 6.65625L3.90625 2H3C2.4375 2 2 1.5625 2 1ZM6 12H8V15C8 15.5625 7.53125 16 7 16C6.4375 16 6 15.5625 6 15V12Z" fill="#BB9A6A"/>
</svg>
