<svg width="14" height="16" viewBox="0 0 14 16" fill="none" xmlns="http://www.w3.org/2000/svg">
<path d="M4.71875 1.09375L4.34375 6C4.34375 6.3125 4.15625 6.5625 3.90625 6.75C3.0625 7.3125 2.4375 8.1875 2.1875 9.21875L2 10H6.5V7C6.5 6.75 6.71875 6.5 7 6.5C7.25 6.5 7.5 6.75 7.5 7V10H12L11.7812 9.21875C11.5312 8.1875 10.9062 7.3125 10.0625 6.75C9.8125 6.5625 9.65625 6.3125 9.625 6L9.25 1.09375C9.25 1.0625 9.25 1.03125 9.25 1H4.75C4.75 1.03125 4.75 1.0625 4.71875 1.09375ZM6.5 11H2C1.6875 11 1.375 10.875 1.1875 10.625C1 10.375 0.9375 10.0625 1.03125 9.78125L1.21875 9C1.53125 7.6875 2.3125 6.625 3.34375 5.90625L3.65625 2L3.75 1H3C2.90625 1 2.8125 1 2.75 0.9375C2.59375 0.875 2.5 0.6875 2.5 0.5C2.5 0.25 2.71875 0 3 0H3.75H10.25H11C11.25 0 11.5 0.25 11.5 0.5C11.5 0.6875 11.375 0.875 11.2188 0.9375C11.1562 1 11.0625 1 11 1H10.25L10.3125 2L10.625 5.90625C11.6562 6.625 12.4375 7.6875 12.75 9L12.9688 9.78125C13.0312 10.0625 12.9688 10.375 12.7812 10.625C12.5938 10.875 12.2812 11 12 11H7.5V15.5C7.5 15.7812 7.25 16 7 16C6.71875 16 6.5 15.7812 6.5 15.5V11Z" fill="#BB9A6A"/>
</svg>
